<svg id="illustration-mobile-phones" xmlns="http://www.w3.org/2000/svg" viewBox="0 0 710.386 686.71">
  <g style="isolation:isolate">
    <path d="m90.341 624.154-27.772-16.14c-3.862-2.244-6.264-7.001-6.283-13.74l27.772 16.138c.019 6.74 2.42 11.498 6.283 13.742Zm163.805-572.71 27.772 16.14c-3.91-2.274-9.32-1.968-15.266 1.466L238.88 52.91c5.946-3.433 11.355-3.739 15.266-1.466Z" fill="#001752"/>
    <path d="m84.058 610.413-27.772-16.14-1.164-410.565 27.772 16.14 1.164 410.565zm20.241-447.629-27.772-16.14L238.88 52.91l27.772 16.14-162.353 93.734z" fill="#001752"/>
    <path d="M266.652 69.05c11.814-6.821 21.507-1.298 21.545 12.266l1.164 410.565c.038 13.564-9.59 30.254-21.405 37.075l-162.353 93.735c-11.814 6.82-21.506 1.286-21.545-12.278l-1.164-410.565c-.038-13.565 9.591-30.243 21.406-37.064L266.652 69.05Z" fill="#9ea0a3"/>
    <path d="m82.894 199.848-27.772-16.14c-.039-13.564 9.59-30.243 21.405-37.063l27.772 16.14c-11.814 6.82-21.444 23.5-21.405 37.063Z" fill="#001752"/>
  </g>
  <path d="M267.602 69.147c11.573-6.682 20.985-.742 21.024 13.262l1.16 409.189c.04 14.003-9.307 30.774-20.88 37.455l-163.399 94.339c-11.563 6.676-20.984.74-21.024-13.263l-1.16-409.188c-.04-14.004 9.317-30.78 20.88-37.456l163.4-94.338Z" fill="#e4e9ef"/>
  <path d="M211.72 123.587c1.83-1.058 3.335-.2 3.341 1.904v.185c.006 2.104-1.488 4.682-3.32 5.739l-50.337 29.062c-1.831 1.057-3.336.212-3.341-1.893v-.185c-.007-2.104 1.488-4.693 3.32-5.75l50.336-29.062Z" fill="#001752"/>
  <g style="isolation:isolate">
    <path d="m422.77 574.168-27.773-16.139c-3.862-2.244-6.264-7.002-6.283-13.741l27.772 16.14c.019 6.739 2.42 11.496 6.283 13.74ZM586.573 1.458l27.772 16.14c-3.91-2.273-9.32-1.967-15.267 1.466l-27.772-16.14c5.947-3.433 11.356-3.738 15.267-1.466ZM416.486 560.427l-27.772-16.14-1.164-410.564 27.772 16.139 1.164 410.565z" fill="#001752"/>
    <path d="m436.727 112.798-27.772-16.139L571.307 2.925l27.772 16.139-162.357 93.734z" fill="#001752"/>
    <path d="M599.08 19.064c11.814-6.82 21.506-1.298 21.545 12.267l1.164 410.565c.038 13.564-9.591 30.254-21.406 37.075l-162.352 93.734c-11.815 6.821-21.507 1.286-21.545-12.278l-1.164-410.565c-.039-13.564 9.59-30.243 21.405-37.064L599.08 19.064Z" fill="#9ea0a3"/>
    <path d="m415.322 149.862-27.772-16.14c-.039-13.563 9.59-30.242 21.405-37.063l27.772 16.14c-11.814 6.82-21.444 23.5-21.405 37.063Z" fill="#001752"/>
  </g>
  <path d="M600.03 19.161c11.573-6.681 20.984-.741 21.024 13.263l1.16 409.188c.04 14.004-9.307 30.774-20.88 37.456l-163.4 94.338c-11.562 6.676-20.983.742-21.023-13.262l-1.16-409.189c-.04-14.003 9.317-30.78 20.88-37.455l163.4-94.34Z" fill="#e4e9ef"/>
  <path d="M544.147 73.601c1.831-1.057 3.336-.2 3.342 1.904v.185c.006 2.105-1.488 4.682-3.32 5.74l-50.337 29.062c-1.831 1.057-3.336.21-3.342-1.893v-.185c-.006-2.105 1.488-4.693 3.32-5.75L544.147 73.6Z" fill="#001752"/>
  <circle fill="#1b2c67" cx="367.325" cy="293.928" r="1.471"/>
  <circle fill="#1b2c67" cx="367.325" cy="356.383" r="1.471"/>
  <circle fill="#1b2c67" cx="367.325" cy="366.077" r="1.471"/>
  <path d="M367.325 294.173v53.818m-158.713-45.476-3.776 20.725 17.758 10.322" fill="none" stroke="#1b2c67" stroke-miterlimit="10"/>
  <path d="M204.76 323.26s111.89-64.925 115.957-67.273c4.067-2.348 23.304-7.244 23.304 13.455V646.17c.006 3.48-.453 22.416 21.28 14.626l174.61-100.811s13.853-4.792 13.853-33.735V423.904" fill="none" stroke="#1b2c67" stroke-miterlimit="10"/>
  <path d="m570.571 435.67-16.83-11.774-16.325 12.465" fill="none" stroke="#1b2c67" stroke-miterlimit="10"/>
  <circle fill="#1b2c67" cx="327.025" cy="313.71" r="1.471"/>
  <circle fill="#1b2c67" cx="327.025" cy="376.166" r="1.471"/>
  <circle fill="#1b2c67" cx="327.025" cy="385.86" r="1.471"/>
  <path d="M327.025 313.955v53.82" fill="none" stroke="#1b2c67" stroke-miterlimit="10"/>
  <path d="m106.28 670.527 38.692 14.973 11.36-19.666-7.691-17.854-23.623 3.57-17.03 7.691-1.708 11.286zm108.347-231.675 37.356 14.284-8.948 37.89-23.348 14.834-12.91-4.67.001-14.832 7.85-47.506z" fill="#d8d0c4"/>
  <path d="m244.771 473.923 37.356 14.283-8.948 37.892-23.35 14.832-12.91-4.669v-14.833l7.85-47.505z" fill="#d8d0c4"/>
  <path d="m245.214 598.485-125.331 72.122c-9.004 5.181-20.242-1.318-20.242-11.705V558.596a13.51 13.51 0 0 1 6.77-11.706l69.733-40.125 38.489-67.913-.536 46.073 17.65-10.157c9.004-5.181 20.242 1.318 20.242 11.705V586.78c0 4.832-2.581 9.296-6.77 11.706Z" fill="#d8d0c4"/>
  <path d="M282.57 612.768 157.24 684.89c-9.004 5.182-20.242-1.317-20.242-11.705V572.879c0-4.832 2.581-9.295 6.77-11.705l69.726-40.125 37.76-66.154.193 44.313 17.651-10.157c9.004-5.18 20.241 1.318 20.241 11.706v100.305c0 4.832-2.58 9.296-6.769 11.706Z" fill="#fff0ea"/>
  <path d="m571.476 293.658 38.672 26.08 1.882-5.2.224-6.812.673-19.676v-5.525l-.905-24.658-28.366 12.144-12.18 23.647zm-45.483-36.508 39.933 24.405-3.915-40.75-36.018 16.345zM667.067 72.36v47.573h4.192l34.576-25.16-38.768-22.412" fill="#d8d0c4"/>
  <path d="M657.625 71.744c5.906-3.408 13.287.855 13.287 7.674v94.343a8.86 8.86 0 0 1-4.432 7.674l-45.278 26.124-49.726 86.1v-57.41l-36.43 21.02c-5.907 3.408-13.288-.855-13.288-7.674v-94.343a8.86 8.86 0 0 1 4.432-7.673l131.435-75.835" fill="#d8d0c4"/>
  <path d="m705.955 204.97-45.278 26.124-49.726 86.1v-57.41l-36.43 21.02c-5.907 3.408-13.288-.855-13.288-7.674v-94.342a8.86 8.86 0 0 1 4.432-7.674L697.1 95.28c5.906-3.408 13.286.854 13.286 7.673v94.343a8.86 8.86 0 0 1-4.431 7.674Z" fill="#fff0ea"/>
  <path d="m184.85 228.972-7.734-4.465c-7.328-4.259-17.465-3.681-28.665 2.785a58.52 58.52 0 0 0-3.57 2.253c-.112.078-.226.148-.34.225a68.052 68.052 0 0 0-6.284 4.909c-3.814 3.348-7.273 7.072-10.419 11.051-.082.103-.166.204-.26.321a98.048 98.048 0 0 0-7.71 11.473c-.193.337-.38.677-.569 1.016-2.919 5.227-5.38 10.726-7.252 16.414-1.685 5.114-2.9 10.407-3.45 15.768-.537 5.247-.467 10.696.7 15.86 1.38 6.118 4.526 12.113 9.886 15.616.14.092 8.603 4.967 8.603 4.967l57.065-98.193Z" fill="#9aa703"/>
  <path d="m184.85 228.972-7.734-4.465c-7.328-4.259-17.465-3.681-28.665 2.785a58.52 58.52 0 0 0-3.57 2.253c-.112.078-.226.148-.34.225a68.052 68.052 0 0 0-6.284 4.909c-3.814 3.348-7.273 7.072-10.419 11.051-.082.103-.166.204-.26.321a98.048 98.048 0 0 0-7.71 11.473c-.193.337-.38.677-.569 1.016-2.919 5.227-5.38 10.726-7.252 16.414-1.685 5.114-2.9 10.407-3.45 15.768-.537 5.247-.467 10.696.7 15.86 1.38 6.118 4.526 12.113 9.886 15.616.14.092 8.603 4.967 8.603 4.967l57.065-98.193Z" fill="none" stroke="#9aa703" stroke-miterlimit="10" stroke-width="3"/>
  <path d="M156.456 324.389c-22.265 12.855-40.37 2.537-40.444-23.048-.072-25.576 17.915-56.731 40.18-69.586 22.259-12.851 40.365-2.534 40.437 23.042.065 25.586-17.922 56.74-40.18 69.591" fill="#dff105"/>
  <path d="M156.456 324.389c-22.265 12.855-40.37 2.537-40.444-23.048-.072-25.576 17.915-56.731 40.18-69.586 22.259-12.851 40.365-2.534 40.437 23.042.065 25.586-17.922 56.74-40.18 69.591" fill="none" stroke="#def204" stroke-miterlimit="10" stroke-width="3"/>
  <path d="M167.106 280.02c-.009-2.765-.982-4.918-2.674-5.908-1.374-.782-3.153-.532-4.84-.05l-.035-12.344c1.283-.093 2.343.433 2.886 1.697.313.792 1.117.92 1.97.429.258-.15.52-.356.777-.62 1.077-1.112 1.634-2.831 1.204-3.85-1.2-2.797-3.77-3.772-6.852-2.794l-.006-2.634c-.005-1.343-.974-1.895-2.142-1.22-1.17.674-2.11 2.328-2.106 3.672l.008 2.634c-4.268 3.575-7.468 9.822-7.453 15.063.008 3.125 1.253 5.56 3.215 6.37 1.329.525 2.815.288 4.298-.102l.034 12.058c-1.44.108-2.567-.638-3.023-2.16-.28-.9-1.133-1.1-2.052-.57a3.41 3.41 0 0 0-.603.45c-1.123 1.04-1.748 2.746-1.43 3.856 1 3.303 3.795 4.56 7.123 3.517l.01 3.51c.003 1.345.95 1.91 2.12 1.236 1.168-.675 2.13-2.343 2.128-3.686l-.01-3.486c4.265-3.576 7.468-9.82 7.453-15.062m-13.295-4.87c-1.036-.41-1.716-1.802-1.72-3.508-.008-2.53 1.312-5.464 3.218-7.523l.033 11.13c-.563.067-1.104.067-1.531-.1m5.827 14.82-.031-10.846c.72-.104 1.35-.105 1.824.164.88.527 1.423 1.714 1.427 3.185.008 2.532-1.336 5.478-3.22 7.498m-49.306 55.153-7.735-4.464c-7.328-4.26-17.463-3.682-28.665 2.785a58.842 58.842 0 0 0-3.57 2.252c-.113.078-.225.149-.34.226a68.052 68.052 0 0 0-6.284 4.908c-3.814 3.348-7.273 7.073-10.42 11.052-.081.103-.165.202-.26.32a97.895 97.895 0 0 0-7.71 11.475c-.194.337-.38.676-.57 1.016-2.92 5.227-5.38 10.726-7.252 16.414-1.685 5.114-2.9 10.406-3.45 15.767-.537 5.247-.467 10.696.7 15.861 1.379 6.117 4.526 12.113 9.885 15.614.142.093 8.604 4.967 8.604 4.967l57.065-98.191Z" fill="#9aa703"/>
  <path d="m110.332 345.122-7.735-4.464c-7.328-4.26-17.463-3.682-28.665 2.785a58.842 58.842 0 0 0-3.57 2.252c-.113.078-.225.15-.34.226a68.052 68.052 0 0 0-6.284 4.908c-3.814 3.348-7.273 7.073-10.42 11.052-.081.103-.165.202-.26.32a97.895 97.895 0 0 0-7.71 11.481c-.194.336-.38.675-.57 1.015-2.92 5.227-5.38 10.726-7.252 16.414-1.685 5.114-2.9 10.406-3.45 15.767-.537 5.247-.467 10.696.7 15.861 1.379 6.117 4.526 12.113 9.885 15.614.142.093 8.604 4.967 8.604 4.967l57.065-98.192Z" fill="none" stroke="#9aa703" stroke-miterlimit="10" stroke-width="3"/>
  <path d="M81.937 440.539c-22.265 12.855-40.37 2.537-40.444-23.046-.072-25.578 17.915-56.733 40.18-69.588 22.259-12.85 40.365-2.533 40.437 23.043.072 25.586-17.915 56.741-40.173 69.591" fill="#dff105"/>
  <path d="M81.937 440.539c-22.265 12.855-40.37 2.537-40.444-23.046-.072-25.578 17.915-56.733 40.18-69.588 22.259-12.85 40.365-2.533 40.437 23.043.072 25.586-17.915 56.741-40.173 69.591" fill="none" stroke="#def204" stroke-miterlimit="10" stroke-width="3"/>
  <path d="M92.586 396.17c-.008-2.764-.98-4.917-2.673-5.908-1.374-.782-3.153-.532-4.839-.05l-.036-12.344c1.283-.093 2.343.433 2.886 1.697.313.792 1.117.92 1.97.43.258-.15.52-.356.775-.62 1.073-1.112 1.629-2.832 1.199-3.85-1.2-2.798-3.77-3.772-6.851-2.794l-.006-2.634c-.005-1.343-.974-1.895-2.142-1.221-1.17.674-2.11 2.329-2.106 3.673l.008 2.634c-4.267 3.574-7.468 9.821-7.454 15.062.01 3.125 1.254 5.562 3.216 6.37 1.329.525 2.813.289 4.298-.102l.034 12.058c-1.44.115-2.567-.632-3.022-2.153-.28-.9-1.134-1.104-2.054-.573-.2.114-.402.266-.602.45-1.123 1.036-1.748 2.742-1.43 3.853 1 3.302 3.795 4.56 7.123 3.516l.01 3.512c.003 1.343.95 1.908 2.12 1.234 1.168-.675 2.131-2.342 2.127-3.685l-.01-3.487c4.268-3.576 7.468-9.82 7.453-15.062m-13.293-4.87c-1.037-.41-1.716-1.802-1.72-3.508-.008-2.53 1.312-5.464 3.218-7.522l.032 11.13c-.562.066-1.103.066-1.53-.1m5.827 14.82-.03-10.847c.72-.105 1.35-.106 1.823.163.88.527 1.422 1.714 1.427 3.186.006 2.53-1.337 5.477-3.22 7.497M78.07 230.616l-7.735-4.465c-7.328-4.259-17.463-3.68-28.665 2.786a58.891 58.891 0 0 0-3.57 2.252c-.112.077-.226.147-.34.224a68.052 68.052 0 0 0-6.282 4.91c-3.814 3.347-7.274 7.071-10.42 11.05-.081.103-.166.202-.26.32a97.895 97.895 0 0 0-7.71 11.474c-.192.337-.378.677-.568 1.017-2.92 5.227-5.38 10.725-7.252 16.413-1.686 5.114-2.901 10.408-3.451 15.768-.536 5.247-.467 10.696.7 15.86 1.38 6.118 4.526 12.113 9.886 15.616.14.092 8.603 4.966 8.603 4.966l57.065-98.192Z" fill="#9aa703"/>
  <path d="m78.076 230.611-7.735-4.465c-7.328-4.259-17.463-3.681-28.665 2.786a58.891 58.891 0 0 0-3.57 2.252c-.112.078-.226.148-.34.225a68.052 68.052 0 0 0-6.283 4.909c-3.814 3.348-7.274 7.072-10.42 11.05-.081.104-.166.203-.26.322a97.895 97.895 0 0 0-7.71 11.473c-.193.337-.38.677-.57 1.017-2.918 5.227-5.38 10.725-7.251 16.413-1.685 5.114-2.9 10.408-3.45 15.768-.536 5.247-.467 10.696.7 15.86 1.38 6.118 4.526 12.113 9.886 15.616.14.092 8.603 4.966 8.603 4.966l57.065-98.192Z" fill="none" stroke="#9aa703" stroke-miterlimit="10" stroke-width="3"/>
  <path d="M49.681 326.028c-22.265 12.855-40.37 2.537-40.444-23.048-.072-25.576 17.915-56.731 40.182-69.586 22.252-12.851 40.357-2.534 40.429 23.042.072 25.586-17.915 56.742-40.173 69.592" fill="#dff105"/>
  <path d="M49.681 326.028c-22.265 12.855-40.37 2.537-40.444-23.048-.072-25.576 17.915-56.731 40.182-69.586 22.252-12.851 40.357-2.534 40.429 23.042.072 25.586-17.915 56.742-40.173 69.592" fill="none" stroke="#def204" stroke-miterlimit="10" stroke-width="3"/>
  <path d="M60.33 281.659c-.008-2.765-.98-4.918-2.673-5.908-1.374-.782-3.153-.532-4.839-.05l-.036-12.34c1.283-.091 2.343.435 2.886 1.699.314.792 1.117.92 1.97.43.259-.151.521-.358.775-.621 1.079-1.113 1.637-2.832 1.206-3.85-1.2-2.798-3.77-3.772-6.852-2.794l-.006-2.634c-.005-1.345-.974-1.897-2.142-1.222-1.17.674-2.11 2.329-2.106 3.672l.008 2.634c-4.267 3.575-7.468 9.822-7.453 15.063.008 3.125 1.253 5.562 3.215 6.37 1.329.525 2.814.289 4.299-.102l.033 12.058c-1.44.108-2.567-.638-3.022-2.16-.28-.9-1.134-1.102-2.054-.572a3.5 3.5 0 0 0-.602.45c-1.123 1.037-1.748 2.743-1.43 3.854 1 3.302 3.795 4.559 7.123 3.516l.01 3.512c.004 1.343.95 1.908 2.12 1.234 1.168-.675 2.13-2.342 2.128-3.686l-.01-3.486c4.266-3.576 7.467-9.82 7.452-15.062m-13.294-4.87c-1.036-.41-1.716-1.804-1.72-3.508-.008-2.53 1.312-5.464 3.218-7.522l.033 11.13c-.563.066-1.104.066-1.531-.1m5.827 14.82-.031-10.847c.72-.105 1.35-.106 1.824.163.88.525 1.422 1.712 1.427 3.184.007 2.53-1.336 5.477-3.22 7.497" fill="#9aa703"/>
</svg>
