<svg id="illustration-3d-column-chart" xmlns="http://www.w3.org/2000/svg" viewBox="0 0 891.63 686.594">
  <path d="m148.754 535.44 482.745-280.296m-519.871 258.66 482.745-280.296M74.502 492.206 557.247 211.91M37.377 470.655l482.745-280.296M.25 449.238l482.746-280.296m-297.172 388.55 482.745-280.296M223.005 578.542 705.75 298.246M260.131 599.96l482.745-280.297m-448.52 302.971L777.1 342.339M334.327 643.262l482.745-280.296M371.508 664.75l482.745-280.296M408.634 686.162l482.745-280.296M408.689 169.01l482.634 280.159m-519.76-258.741 482.635 280.159m-519.76-258.608 482.634 280.158m-519.76-257.483 482.634 280.159m-519.76-259.6 482.635 280.159m-519.75-258.608L705.7 556.922M185.938 298.181l482.633 280.16M148.81 319.732 631.443 599.89M111.684 342.407l482.634 280.16M74.558 362.965l482.634 280.159M37.432 384.517l482.634 280.158M.306 405.935l482.635 280.158" fill="none" stroke="#b9cbdf" stroke-miterlimit="10"/>
  <path d="M409.961 252.264v219.99l37.125-22.832v-218.71l-37.125 21.552z" fill="#d2f204"/>
  <path d="m372.835 230.713 37.126 21.551.009 219.99-37.125-22.832v-218.71z" fill="#99a703"/>
  <path d="m372.835 230.713 37.126-21.55 37.13 21.55-37.121 21.551-37.126-21.551z" fill="#eff5ab"/>
  <path d="M409.961 212.043v41.237l37.125-22.833v-39.955l-37.125 21.551z" fill="#b9cbdf"/>
  <path d="m372.835 190.492 37.126 21.551.009 41.237-37.125-22.833v-39.955z" fill="#1b2c67"/>
  <path d="m372.835 190.492 37.126-21.55 37.13 21.55-37.121 21.551-37.126-21.551z" fill="#6879aa"/>
  <path d="M335.709 339.515v175.841l37.126-22.833v-174.56l-37.126 21.552z" fill="#d2f204"/>
  <path d="m298.584 317.964 37.125 21.55v175.842l-37.125-22.833v-174.56z" fill="#99a703"/>
  <path d="m298.584 317.964 37.125-21.55 37.126 21.55-37.126 21.55-37.125-21.55z" fill="#eff5ab"/>
  <path d="M483.141 169.203v259.833l37.126-22.832V147.652l-37.126 21.551z" fill="#d2f204"/>
  <path d="m446.015 147.652 37.126 21.551.009 259.833-37.125-22.832V147.652z" fill="#99a703"/>
  <path d="m446.015 147.652 37.126-21.55 37.13 21.55-37.121 21.551-37.126-21.551z" fill="#eff5ab"/>
  <path d="M557.393 83.117v302.907l37.125-22.833V61.566l-37.125 21.551z" fill="#d2f204"/>
  <path d="m520.267 61.566 37.126 21.551v302.907l-37.126-22.833V61.566z" fill="#99a703"/>
  <path d="m520.267 61.566 37.126-21.551 37.126 21.551-37.126 21.551-37.126-21.551z" fill="#eff5ab"/>
  <path d="M557.393 43.101v41.237l37.125-22.832V21.55L557.393 43.1z" fill="#b9cbdf"/>
  <path d="m520.267 21.551 37.126 21.55v41.237l-37.126-22.832V21.55z" fill="#1b2c67"/>
  <path d="M520.267 21.551 557.393 0l37.126 21.551-37.126 21.55-37.126-21.55z" fill="#6879aa"/>
  <path d="M483.141 129.188v41.236l37.126-22.832v-39.955l-37.126 21.55z" fill="#b9cbdf"/>
  <path d="m446.015 107.637 37.126 21.55.009 41.237-37.125-22.832v-39.955z" fill="#1b2c67"/>
  <path d="m446.015 107.637 37.126-21.551 37.13 21.551-37.121 21.55-37.126-21.55z" fill="#6879aa"/>
  <path d="M335.709 299.872v41.236l37.126-22.832v-39.955l-37.126 21.55z" fill="#b9cbdf"/>
  <path d="m298.584 278.321 37.125 21.55v41.237l-37.125-22.832v-39.955z" fill="#1b2c67"/>
  <path d="m298.584 278.321 37.125-21.551 37.126 21.551-37.126 21.561-37.125-21.55z" fill="#6879aa"/>
  <path d="M263.536 37.862v561.486l442.86-258.24" fill="none" stroke="#333a52" stroke-miterlimit="10"/>
  <path d="m225.403 59.065 37.724-21.203 35.929 21.55m366.64 267.085 40.7 14.61 7.498 41.384" fill="none" stroke="#333a52" stroke-miterlimit="10"/>
  <ellipse fill="#333a52" cx="263.536" cy="297.054" rx="6.96" ry="6.998"/>
  <ellipse fill="#333a52" cx="263.536" cy="599.348" rx="2.343" ry="2.356"/>
  <ellipse fill="#333a52" cx="445.815" cy="578.34" rx="7.305" ry="7.344"/>
  <ellipse fill="#333a52" cx="409.961" cy="601.217" rx="7.305" ry="7.344"/>
  <ellipse fill="#333a52" cx="371.508" cy="622.634" rx="7.305" ry="7.344"/>
  <ellipse fill="#333a52" cx="483.299" cy="557.07" rx="7.305" ry="7.344"/>
  <ellipse fill="#333a52" cx="520.122" cy="535.372" rx="7.305" ry="7.344"/>
  <path d="m231.464 157.69-8.348-4.846c-7.91-4.622-18.851-3.994-30.941 3.023a63.02 63.02 0 0 0-3.853 2.444c-.122.09-.245.17-.367.25a73.507 73.507 0 0 0-6.783 5.33c-4.116 3.634-7.852 7.677-11.247 11.995-.088.112-.18.22-.28.35a106.43 106.43 0 0 0-8.323 12.45c-.208.366-.409.735-.613 1.103-3.15 5.672-5.807 11.64-7.829 17.812-1.818 5.549-3.129 11.294-3.723 17.11-.58 5.696-.504 11.609.754 17.214 1.49 6.639 4.886 13.145 10.672 16.946.152.1 9.285 5.39 9.285 5.39l61.596-106.562Z" fill="#99a703"/>
  <path d="m231.422 157.762-.02.035c.1.045.205.083.305.13l-.285-.165Z" fill="none"/>
  <path d="M200.815 261.239c-24.033 13.95-43.575 2.754-43.654-25.012-.078-27.756 19.337-61.566 43.37-75.517 24.026-13.947 43.567-2.75 43.646 25.007.078 27.765-19.337 61.576-43.362 75.522Z" fill="#d2f204"/>
  <path d="M212.31 213.088c-.009-3-1.06-5.336-2.886-6.41-1.484-.85-3.403-.579-5.223-.055l-.038-13.396c1.384-.101 2.528.47 3.115 1.84.338.86 1.204 1 2.126.466a3.95 3.95 0 0 0 .838-.67c1.162-1.207 1.765-3.073 1.3-4.178-1.296-3.038-4.07-4.095-7.395-3.034l-.008-2.86c-.004-1.456-1.05-2.056-2.312-1.324-1.261.733-2.276 2.528-2.272 3.986l.008 2.86c-4.606 3.879-8.061 10.657-8.045 16.346.01 3.39 1.353 6.035 3.47 6.912 1.435.57 3.038.314 4.64-.111l.037 13.087c-1.555.116-2.772-.693-3.263-2.345-.302-.977-1.224-1.197-2.215-.621a3.736 3.736 0 0 0-.652.489c-1.211 1.125-1.887 2.976-1.543 4.18 1.08 3.584 4.096 4.949 7.688 3.818l.01 3.81c.005 1.458 1.027 2.071 2.289 1.34 1.26-.733 2.3-2.543 2.297-4l-.01-3.783c4.604-3.88 8.06-10.658 8.044-16.347Zm-14.35-5.285c-1.12-.445-1.852-1.956-1.857-3.806-.008-2.746 1.416-5.93 3.475-8.165l.035 12.08c-.608.07-1.191.072-1.653-.109Zm6.29 16.083-.034-11.77c.778-.115 1.458-.117 1.969.176.95.572 1.536 1.86 1.54 3.456.008 2.747-1.44 5.946-3.476 8.138Zm97.042 343.968-8.348-4.846c-7.91-4.621-18.851-3.994-30.941 3.024a63.02 63.02 0 0 0-3.853 2.444c-.122.083-.245.161-.367.245a73.507 73.507 0 0 0-6.783 5.326c-4.116 3.633-7.852 7.676-11.247 11.994-.088.112-.18.22-.28.349a106.43 106.43 0 0 0-8.323 12.45c-.21.365-.41.735-.613 1.103-3.15 5.672-5.807 11.64-7.83 17.812-1.817 5.55-3.128 11.295-3.722 17.112-.58 5.695-.504 11.608.754 17.213 1.49 6.638 4.886 13.145 10.672 16.946.152.1 9.285 5.39 9.285 5.39l61.596-106.562Z" fill="#99a703"/>
  <path d="m301.25 567.927-.02.034c.1.045.205.084.304.13l-.284-.164Z" fill="none"/>
  <path d="M270.643 671.404c-24.034 13.95-43.575 2.753-43.654-25.012-.078-27.757 19.337-61.567 43.37-75.518 24.025-13.946 43.567-2.75 43.646 25.007.078 27.766-19.337 61.576-43.362 75.523Z" fill="#d2f204"/>
  <path d="M282.138 623.252c-.009-2.999-1.06-5.335-2.886-6.41-1.484-.85-3.403-.578-5.223-.055l-.038-13.395c1.384-.102 2.528.47 3.115 1.84.338.86 1.204 1 2.126.466.278-.163.562-.386.838-.67 1.162-1.208 1.765-3.074 1.3-4.179-1.296-3.037-4.07-4.094-7.395-3.034l-.008-2.859c-.004-1.456-1.05-2.056-2.312-1.324-1.261.732-2.276 2.528-2.272 3.986l.008 2.86c-4.6 3.88-8.06 10.657-8.04 16.345.01 3.391 1.358 6.035 3.47 6.912 1.44.57 3.04.314 4.64-.11l.04 13.086c-1.553.117-2.77-.693-3.261-2.344-.302-.978-1.224-1.197-2.215-.622a3.736 3.736 0 0 0-.652.49c-1.21 1.124-1.887 2.975-1.543 4.18 1.081 3.584 4.097 4.948 7.69 3.817l.01 3.812c.004 1.456 1.026 2.07 2.288 1.338 1.26-.732 2.3-2.542 2.297-4l-.01-3.783c4.603-3.88 8.06-10.658 8.043-16.347Zm-14.35-5.284c-1.12-.445-1.852-1.957-1.857-3.806-.008-2.746 1.416-5.931 3.475-8.165l.035 12.079c-.608.07-1.191.073-1.653-.108Zm6.29 16.082-.034-11.77c.778-.114 1.458-.116 1.969.176.95.573 1.536 1.86 1.54 3.457.008 2.746-1.44 5.946-3.476 8.137Z" fill="#99a703"/>
</svg>
